<svg width="90" height="117" viewBox="0 0 90 117" fill="none" xmlns="http://www.w3.org/2000/svg">
<g filter="url(#filter0_d_5504_4828)">
<path fill-rule="evenodd" clip-rule="evenodd" d="M20 0C11.7157 0 5 6.71573 5 15V92C5 100.284 11.7157 107 20 107H70C78.2843 107 85 100.284 85 92V15C85 6.71573 78.2843 0 70 0H20ZM28 10C19.7157 10 13 16.7157 13 25V81C13 89.2843 19.7157 96 28 96H62C70.2843 96 77 89.2843 77 81V25C77 16.7157 70.2843 10 62 10H28Z" fill="url(#paint0_linear_5504_4828)"/>
</g>
<defs>
<filter id="filter0_d_5504_4828" x="0" y="0" width="90" height="117" filterUnits="userSpaceOnUse" color-interpolation-filters="sRGB">
<feFlood flood-opacity="0" result="BackgroundImageFix"/>
<feColorMatrix in="SourceAlpha" type="matrix" values="0 0 0 0 0 0 0 0 0 0 0 0 0 0 0 0 0 0 127 0" result="hardAlpha"/>
<feOffset dy="5"/>
<feGaussianBlur stdDeviation="2.5"/>
<feComposite in2="hardAlpha" operator="out"/>
<feColorMatrix type="matrix" values="0 0 0 0 0 0 0 0 0 0 0 0 0 0 0 0 0 0 0.25 0"/>
<feBlend mode="normal" in2="BackgroundImageFix" result="effect1_dropShadow_5504_4828"/>
<feBlend mode="normal" in="SourceGraphic" in2="effect1_dropShadow_5504_4828" result="shape"/>
</filter>
<linearGradient id="paint0_linear_5504_4828" x1="45" y1="0" x2="45" y2="107" gradientUnits="userSpaceOnUse">
<stop stop-color="#7D0A0A"/>
<stop offset="0.28" stop-color="#E64A16"/>
<stop offset="1" stop-color="#DA8722"/>
</linearGradient>
</defs>
</svg>
