<svg width="20" height="21" viewBox="0 0 20 21" fill="none" xmlns="http://www.w3.org/2000/svg">
<path d="M10 5.34725C13.1583 5.34725 15.975 7.12225 17.35 9.93058C16.8583 10.9472 16.1667 11.8222 15.3417 12.5306L16.5167 13.7056C17.675 12.6806 18.5917 11.3972 19.1667 9.93058C17.725 6.27225 14.1667 3.68058 10 3.68058C8.94168 3.68058 7.92501 3.84725 6.96668 4.15558L8.34168 5.53058C8.88334 5.42225 9.43334 5.34725 10 5.34725ZM9.10834 6.29725L10.8333 8.02225C11.3083 8.23058 11.6917 8.61392 11.9 9.08892L13.625 10.8139C13.6917 10.5306 13.7417 10.2306 13.7417 9.92225C13.75 7.85558 12.0667 6.18058 10 6.18058C9.69168 6.18058 9.40001 6.22225 9.10834 6.29725ZM1.67501 3.57225L3.90834 5.80558C2.55001 6.87225 1.47501 8.28892 0.833344 9.93058C2.27501 13.5889 5.83334 16.1806 10 16.1806C11.2667 16.1806 12.4833 15.9389 13.6 15.4972L16.45 18.3472L17.625 17.1722L2.85001 2.38892L1.67501 3.57225ZM7.92501 9.82225L10.1 11.9972C10.0667 12.0056 10.0333 12.0139 10 12.0139C8.85001 12.0139 7.91668 11.0806 7.91668 9.93058C7.91668 9.88892 7.92501 9.86392 7.92501 9.82225ZM5.09168 6.98892L6.55001 8.44725C6.35834 8.90558 6.25001 9.40558 6.25001 9.93058C6.25001 11.9972 7.93334 13.6806 10 13.6806C10.525 13.6806 11.025 13.5722 11.475 13.3806L12.2917 14.1973C11.5583 14.3973 10.7917 14.5139 10 14.5139C6.84168 14.5139 4.02501 12.7389 2.65001 9.93058C3.23334 8.73892 4.08334 7.75558 5.09168 6.98892Z" fill="#DBDBDB"/>
</svg>
