<svg width="22" height="22" viewBox="0 0 22 22" fill="none" xmlns="http://www.w3.org/2000/svg">
<path d="M11.1397 10.0113C11.0522 10.0025 10.9472 10.0025 10.851 10.0113C8.7685 9.94125 7.11475 8.235 7.11475 6.135C7.11475 3.99125 8.84725 2.25 10.9997 2.25C13.1435 2.25 14.8847 3.99125 14.8847 6.135C14.876 8.235 13.2222 9.94125 11.1397 10.0113Z" fill="#C3CAD9"/>
<path d="M6.04637 13.0632C3.65121 14.6132 3.65121 17.1392 6.04637 18.6796C8.76815 20.4401 13.2319 20.4401 15.9536 18.6796C18.3488 17.1296 18.3488 14.6037 15.9536 13.0632C13.2418 11.3123 8.77804 11.3123 6.04637 13.0632Z" fill="#C3CAD9"/>
</svg>
