<svg width="24" height="24" viewBox="0 0 24 24" fill="none" xmlns="http://www.w3.org/2000/svg">
<path fill-rule="evenodd" clip-rule="evenodd" d="M17.0728 1.32002C18.733 0.979451 20.1915 0.983176 20.8838 1.01205C21.4976 1.03764 21.9851 1.52512 22.0106 2.1389C22.0395 2.83122 22.0432 4.28967 21.7027 5.9499C21.5018 6.92929 20.3245 7.19471 19.6749 6.54517L18.738 5.60827C18.4604 5.85921 18.0852 6.20393 17.6558 6.61303C16.7315 7.49357 15.5717 8.65756 14.5937 9.81951C13.7616 10.808 12.1652 10.8012 11.3838 9.70755C10.9638 9.11971 10.4181 8.38036 9.84512 7.66844C8.75295 8.41596 6.48528 10.1364 3.93608 13.0516C3.77807 13.2323 3.61897 13.4176 3.45901 13.6075C3.11115 14.0205 2.49431 14.0734 2.08127 13.7255C1.66823 13.3776 1.61539 12.7608 1.96325 12.3478C2.13108 12.1485 2.29806 11.954 2.46396 11.7643C5.19652 8.63933 7.6394 6.80096 8.81592 6.00334C9.63881 5.44547 10.7182 5.63775 11.3218 6.38433C11.9438 7.15374 12.5312 7.94975 12.9749 8.57064C12.9791 8.57646 12.9824 8.57905 12.9874 8.58159C12.994 8.58491 13.0062 8.58902 13.0233 8.58951C13.0602 8.59054 13.0843 8.57587 13.0976 8.56018C14.1416 7.31982 15.3593 6.09994 16.3069 5.19716C16.7141 4.80923 17.0743 4.47713 17.3535 4.2238L16.4775 3.34781C15.828 2.69825 16.0934 1.52093 17.0728 1.32002ZM16.7733 21.1548C16.7089 20.2692 16.6444 18.691 16.6444 15.9111C16.6444 13.1312 16.7089 11.5531 16.7733 10.6674C16.8448 9.68482 17.5627 8.91814 18.5832 8.85566C18.908 8.83581 19.3152 8.82222 19.8222 8.82222C20.3292 8.82222 20.7365 8.83581 21.0613 8.85566C22.0818 8.91814 22.7996 9.68482 22.8711 10.6674C22.9356 11.5531 23 13.1312 23 15.9111C23 18.691 22.9356 20.2692 22.8711 21.1548C22.7996 22.1374 22.0818 22.9041 21.0613 22.9666C20.7365 22.9864 20.3292 23 19.8222 23C19.3152 23 18.908 22.9864 18.5832 22.9665C17.5627 22.9041 16.8448 22.1374 16.7733 21.1548ZM1.08239 21.4209C1.03562 20.9596 1 20.2944 1 19.3333C1 18.3723 1.03562 17.7071 1.08239 17.2458C1.18107 16.2724 1.9618 15.715 2.81683 15.6863C3.15277 15.675 3.59732 15.6667 4.17778 15.6667C4.75824 15.6667 5.20278 15.675 5.5387 15.6863C6.39376 15.715 7.17447 16.2724 7.27318 17.2458C7.31992 17.7071 7.35556 18.3723 7.35556 19.3333C7.35556 20.2944 7.31992 20.9596 7.27318 21.4209C7.17447 22.3942 6.39376 22.9517 5.5387 22.9804C5.20278 22.9916 4.75824 23 4.17778 23C3.59732 23 3.15277 22.9916 2.81683 22.9804C1.96181 22.9517 1.18107 22.3942 1.08239 21.4209ZM8.82222 17.8667C8.82222 19.5345 8.87043 20.5868 8.92611 21.2485C9.01035 22.2497 9.77692 22.9334 10.7453 22.9758C11.0695 22.9901 11.4814 23 12 23C12.5186 23 12.9305 22.9901 13.2547 22.9758C14.2231 22.9334 14.9897 22.2497 15.0739 21.2485C15.1296 20.5868 15.1778 19.5345 15.1778 17.8667C15.1778 16.1989 15.1296 15.1465 15.0739 14.4848C14.9897 13.4836 14.2231 12.8 13.2547 12.7575C12.9305 12.7433 12.5186 12.7333 12 12.7333C11.4814 12.7333 11.0695 12.7433 10.7453 12.7575C9.77692 12.8 9.01035 13.4836 8.92611 14.4848C8.87043 15.1465 8.82222 16.1989 8.82222 17.8667Z" fill="url(#paint0_linear_4870_3559)"/>
<defs>
<linearGradient id="paint0_linear_4870_3559" x1="12" y1="1" x2="12" y2="23" gradientUnits="userSpaceOnUse">
<stop stop-color="#868788"/>
<stop offset="1" stop-color="#5B5F64"/>
</linearGradient>
</defs>
</svg>
