<svg width="24" height="24" viewBox="0 0 24 24" fill="none" xmlns="http://www.w3.org/2000/svg">
<path fill-rule="evenodd" clip-rule="evenodd" d="M21.3648 8.7677C21.3846 9.59009 21.3961 10.4987 21.3961 11.5C21.3961 15.3858 21.2233 17.8762 21.0632 19.3505C20.9123 20.7397 19.9027 21.7887 18.579 21.9501C17.2596 22.1111 15.1255 22.2813 12.0003 22.2813C8.87509 22.2813 6.741 22.1111 5.42156 21.9501C4.09783 21.7887 3.0883 20.7397 2.9374 19.3505C2.77724 17.8762 2.60449 15.3858 2.60449 11.5C2.60449 7.6142 2.77724 5.12387 2.9374 3.64953C3.0883 2.2604 4.09784 1.21134 5.42156 1.04989C6.741 0.888964 8.87509 0.71875 12.0003 0.71875C12.6003 0.71875 13.1638 0.725027 13.692 0.736302C13.6908 1.09152 13.6909 1.54677 13.6948 2.04445C13.7038 3.17674 13.7329 4.56004 13.817 5.47735C13.9701 7.14648 15.2051 8.47028 16.7933 8.6296C17.6698 8.71753 19.0033 8.7503 20.097 8.76195C20.5793 8.76707 21.0208 8.76813 21.3648 8.7677ZM10.167 16.7708C10.167 17.3001 10.5774 17.7292 11.0837 17.7292H16.1253C16.6316 17.7292 17.042 17.3001 17.042 16.7708C17.042 16.2415 16.6316 15.8125 16.1253 15.8125H11.0837C10.5774 15.8125 10.167 16.2415 10.167 16.7708ZM11.0837 13.4167C10.5774 13.4167 10.167 12.9876 10.167 12.4583C10.167 11.929 10.5774 11.5 11.0837 11.5H14.292C14.7983 11.5 15.2087 11.929 15.2087 12.4583C15.2087 12.9876 14.7983 13.4167 14.292 13.4167H11.0837ZM6.95866 16.7708C6.95866 17.3001 7.36905 17.7292 7.87533 17.7292H8.33366C8.83993 17.7292 9.25033 17.3001 9.25033 16.7708C9.25033 16.2415 8.83993 15.8125 8.33366 15.8125H7.87533C7.36905 15.8125 6.95866 16.2415 6.95866 16.7708ZM7.87533 13.4167C7.36905 13.4167 6.95866 12.9876 6.95866 12.4583C6.95866 11.929 7.36905 11.5 7.87533 11.5H8.33366C8.83993 11.5 9.25033 11.929 9.25033 12.4583C9.25033 12.9876 8.83993 13.4167 8.33366 13.4167H7.87533Z" fill="url(#paint0_linear_4709_4147)"/>
<path d="M15.1858 5.34016C15.1081 4.49307 15.0788 3.16779 15.0699 2.03261C15.0667 1.63219 15.0661 1.25933 15.0666 0.945068C15.7572 1.24928 16.9844 1.96133 18.5784 3.58648C20.2969 5.33867 20.9767 6.65849 21.2364 7.33033C20.9176 7.33033 20.5298 7.32899 20.1111 7.32453C19.0142 7.31289 17.7353 7.28002 16.9246 7.1987C16.0107 7.10704 15.2778 6.34348 15.1858 5.34016Z" fill="url(#paint1_linear_4709_4147)"/>
<defs>
<linearGradient id="paint0_linear_4709_4147" x1="12.0003" y1="0.71875" x2="12.0003" y2="22.2813" gradientUnits="userSpaceOnUse">
<stop stop-color="#868788"/>
<stop offset="1" stop-color="#5B5F64"/>
</linearGradient>
<linearGradient id="paint1_linear_4709_4147" x1="18.1514" y1="0.945068" x2="18.1514" y2="7.33033" gradientUnits="userSpaceOnUse">
<stop stop-color="#868788"/>
<stop offset="1" stop-color="#5B5F64"/>
</linearGradient>
</defs>
</svg>
