<svg width="24" height="24" viewBox="0 0 24 24" fill="none" xmlns="http://www.w3.org/2000/svg">
<path fill-rule="evenodd" clip-rule="evenodd" d="M20.2304 4.84225C20.3453 6.19199 20.4641 8.44632 20.478 12.0625H3.52246C3.53647 8.44628 3.65527 6.19189 3.77017 4.84217C3.88934 3.44227 4.89014 2.37904 6.23097 2.24021C7.4049 2.11866 9.25381 2 12.0003 2C14.7467 2 16.5956 2.11866 17.7695 2.2402C19.1104 2.37904 20.1112 3.44232 20.2304 4.84225ZM7.87524 6.3125C8.25497 6.3125 8.56274 6.63431 8.56274 7.03125V8.94792C8.56274 9.34486 8.25497 9.66667 7.87524 9.66667C7.49555 9.66667 7.18774 9.34486 7.18774 8.94792V7.03125C7.18774 6.63431 7.49555 6.3125 7.87524 6.3125Z" fill="url(#paint0_linear_4709_4140)"/>
<path fill-rule="evenodd" clip-rule="evenodd" d="M20.478 13.0625H3.52246C3.53647 16.6787 3.65527 18.9331 3.77017 20.2828C3.88934 21.6827 4.89014 22.746 6.23097 22.8848C7.4049 23.0064 9.25381 23.125 12.0003 23.125C14.7467 23.125 16.5956 23.0064 17.7695 22.8848C19.1104 22.746 20.1112 21.6827 20.2304 20.2827C20.3453 18.933 20.4641 16.6787 20.478 13.0625ZM8.56274 16.1771C8.56274 15.7801 8.25497 15.4583 7.87524 15.4583C7.49555 15.4583 7.18774 15.7801 7.18774 16.1771V18.0938C7.18774 18.4907 7.49555 18.8125 7.87524 18.8125C8.25497 18.8125 8.56274 18.4907 8.56274 18.0938V16.1771Z" fill="url(#paint1_linear_4709_4140)"/>
<path fill-rule="evenodd" clip-rule="evenodd" d="M12 24C9.03092 23.9999 6.95344 23.8598 5.64986 23.7266C4.35549 23.5944 3.30292 22.0167 3.18031 19.849C3.08643 18.1892 3 15.7726 3 12.4999C3 9.22738 3.08643 6.81068 3.18031 5.15101C3.30292 2.98328 4.35549 1.40557 5.64986 1.27335C6.95344 1.14019 9.03092 0.999993 12 1C14.9691 1 17.0466 1.14019 18.3502 1.27335C19.6445 1.40557 20.6971 2.98328 20.8197 5.15101C20.9136 6.81068 21 9.22738 21 12.4999C21 15.7726 20.9136 18.1893 20.8197 19.849C20.6971 22.0167 19.6445 23.5944 18.3501 23.7266C17.0466 23.8598 14.9691 24 12 24Z" fill="url(#paint2_linear_4709_4140)"/>
<rect x="6" y="4" width="5" height="1.7" rx="0.85" fill="white"/>
<rect x="13" y="4" width="5" height="1.7" rx="0.85" fill="white"/>
<rect x="6" y="7.20001" width="5" height="1.7" rx="0.85" fill="white"/>
<rect x="13" y="7.20001" width="5" height="1.7" rx="0.85" fill="white"/>
<rect x="6" y="10.4" width="5" height="1.7" rx="0.85" fill="white"/>
<rect x="13" y="10.4" width="5" height="1.7" rx="0.85" fill="white"/>
<rect x="6" y="13.6" width="5" height="1.7" rx="0.85" fill="white"/>
<rect x="13" y="13.6" width="5" height="1.7" rx="0.85" fill="white"/>
<rect x="6" y="16.8" width="5" height="1.7" rx="0.85" fill="white"/>
<rect x="13" y="16.8" width="5" height="1.7" rx="0.85" fill="white"/>
<defs>
<linearGradient id="paint0_linear_4709_4140" x1="12.0002" y1="2" x2="12.0002" y2="12.0625" gradientUnits="userSpaceOnUse">
<stop stop-color="#F58F13"/>
<stop offset="1" stop-color="#C8740F"/>
</linearGradient>
<linearGradient id="paint1_linear_4709_4140" x1="12.0002" y1="13.0625" x2="12.0002" y2="23.125" gradientUnits="userSpaceOnUse">
<stop stop-color="#F58F13"/>
<stop offset="1" stop-color="#C8740F"/>
</linearGradient>
<linearGradient id="paint2_linear_4709_4140" x1="12" y1="1" x2="12" y2="24" gradientUnits="userSpaceOnUse">
<stop stop-color="#F58F13"/>
<stop offset="1" stop-color="#C8740F"/>
</linearGradient>
</defs>
</svg>
