<svg width="24" height="24" viewBox="0 0 24 24" fill="none" xmlns="http://www.w3.org/2000/svg">
<path fill-rule="evenodd" clip-rule="evenodd" d="M5.64986 23.7266C6.95344 23.8598 9.03092 23.9999 12 24C14.9691 24 17.0466 23.8598 18.3501 23.7266C19.6445 23.5944 20.6971 22.0167 20.8197 19.849C20.9136 18.1893 21 15.7726 21 12.4999C21 9.22738 20.9136 6.81068 20.8197 5.15101C20.6971 2.98328 19.6445 1.40557 18.3502 1.27335C17.0466 1.14019 14.9691 1 12 1C9.03092 0.999993 6.95344 1.14019 5.64986 1.27335C4.35549 1.40557 3.30292 2.98328 3.18031 5.15101C3.08643 6.81068 3 9.22738 3 12.4999C3 15.7726 3.08643 18.1892 3.18031 19.849C3.30292 22.0167 4.35549 23.5944 5.64986 23.7266ZM6.85 4C6.38056 4 6 4.38056 6 4.85C6 5.31944 6.38056 5.7 6.85 5.7H10.15C10.6194 5.7 11 5.31944 11 4.85C11 4.38056 10.6194 4 10.15 4H6.85ZM13.85 4C13.3806 4 13 4.38056 13 4.85C13 5.31944 13.3806 5.7 13.85 5.7H17.15C17.6194 5.7 18 5.31944 18 4.85C18 4.38056 17.6194 4 17.15 4H13.85ZM6 8.05001C6 7.58057 6.38056 7.20001 6.85 7.20001H10.15C10.6194 7.20001 11 7.58057 11 8.05001C11 8.51945 10.6194 8.90001 10.15 8.90001H6.85C6.38056 8.90001 6 8.51945 6 8.05001ZM13.85 7.20001C13.3806 7.20001 13 7.58057 13 8.05001C13 8.51945 13.3806 8.90001 13.85 8.90001H17.15C17.6194 8.90001 18 8.51945 18 8.05001C18 7.58057 17.6194 7.20001 17.15 7.20001H13.85ZM6 11.25C6 10.7806 6.38056 10.4 6.85 10.4H10.15C10.6194 10.4 11 10.7806 11 11.25C11 11.7195 10.6194 12.1 10.15 12.1H6.85C6.38056 12.1 6 11.7195 6 11.25ZM13.85 10.4C13.3806 10.4 13 10.7806 13 11.25C13 11.7195 13.3806 12.1 13.85 12.1H17.15C17.6194 12.1 18 11.7195 18 11.25C18 10.7806 17.6194 10.4 17.15 10.4H13.85ZM6 14.45C6 13.9805 6.38056 13.6 6.85 13.6H10.15C10.6194 13.6 11 13.9805 11 14.45C11 14.9194 10.6194 15.3 10.15 15.3H6.85C6.38056 15.3 6 14.9194 6 14.45ZM13.85 13.6C13.3806 13.6 13 13.9805 13 14.45C13 14.9194 13.3806 15.3 13.85 15.3H17.15C17.6194 15.3 18 14.9194 18 14.45C18 13.9805 17.6194 13.6 17.15 13.6H13.85ZM6 17.65C6 17.1805 6.38056 16.8 6.85 16.8H10.15C10.6194 16.8 11 17.1805 11 17.65C11 18.1194 10.6194 18.5 10.15 18.5H6.85C6.38056 18.5 6 18.1194 6 17.65ZM13.85 16.8C13.3806 16.8 13 17.1805 13 17.65C13 18.1194 13.3806 18.5 13.85 18.5H17.15C17.6194 18.5 18 18.1194 18 17.65C18 17.1805 17.6194 16.8 17.15 16.8H13.85Z" fill="url(#paint0_linear_4709_4137)"/>
<defs>
<linearGradient id="paint0_linear_4709_4137" x1="12" y1="1" x2="12" y2="24" gradientUnits="userSpaceOnUse">
<stop stop-color="#808283"/>
<stop offset="0.355" stop-color="#898C8E"/>
<stop offset="0.63" stop-color="#727477"/>
<stop offset="0.995" stop-color="#3F4146"/>
</linearGradient>
</defs>
</svg>
