<svg width="24" height="24" viewBox="0 0 24 24" fill="none" xmlns="http://www.w3.org/2000/svg">
<g clip-path="url(#clip0_4709_4153)">
<path fill-rule="evenodd" clip-rule="evenodd" d="M12.7012 0H11.3013C10.7772 0.000667857 10.2644 0.159296 9.8318 0.455182C9.39977 0.750695 9.06671 1.16941 8.87596 1.65682L8.23576 3.27693L6.2813 4.40837L4.55957 4.14584C4.04066 4.06754 3.51019 4.14757 3.0375 4.37548C2.565 4.6033 2.17182 4.96889 1.90994 5.42337L1.21226 6.63078C0.949698 7.08514 0.830296 7.60816 0.869652 8.13146C0.908996 8.65461 1.10547 9.15411 1.43287 9.56402L2.52105 10.9275V13.1796L1.43257 14.5435C1.10517 14.9534 0.908996 15.4525 0.869652 15.9757C0.830296 16.499 0.949707 17.022 1.21227 17.4764L1.91061 18.685C2.17248 19.1391 2.56518 19.5039 3.0375 19.7316C3.51019 19.9596 4.04169 20.0395 4.56061 19.9611L6.28634 19.6987L8.23523 20.8237L8.87212 22.4486C9.06277 22.9368 9.39609 23.3561 9.82862 23.652C10.2612 23.9479 10.7741 24.1064 11.2982 24.1071H12.696C13.2201 24.1064 13.7318 23.9479 14.1644 23.652C14.5966 23.3562 14.9302 22.9362 15.1209 22.4484L15.7577 20.8237L17.7067 19.6987L19.4334 19.9612C19.9524 20.0396 20.4827 19.9596 20.9554 19.7316C21.4277 19.5039 21.8211 19.138 22.0831 18.6837L22.7808 17.4764C23.0433 17.022 23.1627 16.499 23.1233 15.9757C23.084 15.4528 22.8872 14.9529 22.56 14.5431L21.4783 13.1804V10.9275L22.5665 9.56402C22.894 9.15404 23.0904 8.65477 23.1297 8.13145C23.169 7.60814 23.0497 7.08514 22.787 6.63077L22.089 5.4225C21.827 4.96814 21.4343 4.60327 20.9618 4.37548C20.4892 4.14757 19.9577 4.0677 19.4388 4.146L17.7131 4.40848L15.7671 3.28507L15.1268 1.65745C14.9361 1.16977 14.603 0.750821 14.1707 0.455182C13.7382 0.159296 13.2253 0.000669643 12.7012 0ZM11.9997 17.1921C14.4543 17.1921 16.507 15.4709 17.0167 13.1696H12.4622L9.2418 16.39C10.0386 16.8979 10.9848 17.1921 11.9997 17.1921ZM7.66339 14.8117L10.6715 11.8037L8.96223 7.9085C7.68821 8.84366 6.86119 10.352 6.86119 12.0536C6.86119 13.0686 7.15548 14.0149 7.66339 14.8117ZM11.006 7.01107L12.729 10.9375H17.0167C16.507 8.63621 14.4543 6.91507 11.9997 6.91507C11.6597 6.91507 11.3275 6.94807 11.006 7.01107Z" fill="url(#paint0_linear_4709_4153)"/>
</g>
<defs>
<linearGradient id="paint0_linear_4709_4153" x1="11.9997" y1="0" x2="11.9997" y2="24.1071" gradientUnits="userSpaceOnUse">
<stop stop-color="#868788"/>
<stop offset="1" stop-color="#5B5F64"/>
</linearGradient>
<clipPath id="clip0_4709_4153">
<rect width="24" height="24" fill="white"/>
</clipPath>
</defs>
</svg>
