<svg width="24" height="24" viewBox="0 0 24 24" fill="none" xmlns="http://www.w3.org/2000/svg">
<path fill-rule="evenodd" clip-rule="evenodd" d="M12 23C6.30457 23 1.6875 17.9632 1.6875 11.75C1.6875 5.5368 6.30457 0.5 12 0.5C17.6954 0.5 22.3125 5.5368 22.3125 11.75C22.3125 17.9632 17.6954 23 12 23ZM12.7497 6.3108C10.6988 6.10355 8.51882 6.4204 6.58681 7.35485C6.12398 7.57865 5.91512 8.16945 6.12032 8.6743C6.32551 9.1792 6.86703 9.40705 7.32986 9.1832C8.94406 8.40245 10.8053 8.12285 12.5805 8.30225C14.367 8.4828 16.0899 9.1308 17.3994 10.2296C17.8007 10.5663 18.3762 10.4844 18.6849 10.0467C18.9936 9.60895 18.9185 8.9811 18.5172 8.64435C16.8797 7.2703 14.8074 6.5187 12.7497 6.3108ZM7.17205 11.2991C8.76513 10.4762 10.5764 10.1964 12.2739 10.371C13.934 10.5419 15.6127 11.1616 16.9401 12.3027C17.3378 12.6446 17.4061 13.2734 17.0927 13.7072C16.7794 14.1409 16.203 14.2154 15.8054 13.8736C14.8075 13.0158 13.4835 12.5044 12.1017 12.3622C10.6929 12.2172 9.21778 12.4552 7.95668 13.1067C7.49912 13.3431 6.95256 13.1301 6.7359 12.6309C6.51925 12.1318 6.7145 11.5355 7.17205 11.2991ZM11.7995 14.4539C10.5464 14.321 9.20916 14.525 8.02002 15.1337C7.56173 15.3683 7.36451 15.9638 7.57956 16.4638C7.79465 16.9638 8.34053 17.1789 8.79882 16.9443C9.65893 16.504 10.661 16.3426 11.622 16.4445C12.5907 16.5473 13.5089 16.9168 14.1934 17.5249C14.5861 17.8736 15.1634 17.8091 15.4831 17.3809C15.8027 16.9526 15.7436 16.3228 15.3511 15.974C14.3366 15.0729 13.0574 14.5873 11.7995 14.4539Z" fill="url(#paint0_linear_4709_4143)"/>
<defs>
<linearGradient id="paint0_linear_4709_4143" x1="12" y1="0.5" x2="12" y2="23" gradientUnits="userSpaceOnUse">
<stop stop-color="#868788"/>
<stop offset="1" stop-color="#5B5F64"/>
</linearGradient>
</defs>
</svg>
