<svg width="24" height="24" viewBox="0 0 24 24" fill="none" xmlns="http://www.w3.org/2000/svg">
<path fill-rule="evenodd" clip-rule="evenodd" d="M4.0915 22.7385C5.61235 22.8659 8.03607 22.9999 11.5 23C14.9639 23 17.3877 22.8659 18.9085 22.7385C20.4186 22.612 21.6466 21.1029 21.7896 19.0294C21.8992 17.4419 22 15.1303 22 12C22 8.86967 21.8992 6.55804 21.7896 4.97053C21.6466 2.89705 20.4186 1.38793 18.9085 1.26147C17.3877 1.1341 14.9639 1 11.5 1C8.03607 0.999994 5.61235 1.1341 4.0915 1.26147C2.5814 1.38793 1.3534 2.89705 1.21036 4.97053C1.10084 6.55804 1 8.86967 1 12C1 15.1303 1.10084 17.4419 1.21036 19.0294C1.3534 21.1029 2.5814 22.612 4.0915 22.7385ZM12.5562 8.97721C12.3725 8.0849 11.2811 7.69871 10.5496 8.26714L6.37844 11.5088C5.59354 12.1188 6.12169 13.3462 7.11999 13.2321L9.56484 12.9527L9.92149 14.685C10.1052 15.5773 11.1966 15.9635 11.9281 15.395L16.0992 12.1535C16.8842 11.5435 16.356 10.316 15.3577 10.4301L12.9129 10.7096L12.5562 8.97721Z" fill="url(#paint0_linear_4709_4157)"/>
<defs>
<linearGradient id="paint0_linear_4709_4157" x1="11.5" y1="1" x2="11.5" y2="23" gradientUnits="userSpaceOnUse">
<stop stop-color="#808283"/>
<stop offset="0.355" stop-color="#898C8E"/>
<stop offset="0.63" stop-color="#727477"/>
<stop offset="0.995" stop-color="#3F4146"/>
</linearGradient>
</defs>
</svg>
