<svg width="20" height="20" viewBox="0 0 20 20" fill="none" xmlns="http://www.w3.org/2000/svg">
<path d="M14.8332 3.62722C14.7689 2.8363 14.1637 2.23108 13.3728 2.16682C12.3736 2.08564 10.7793 2 8.5 2C6.22067 2 4.62643 2.08564 3.62722 2.16682C2.8363 2.23108 2.23109 2.83629 2.16682 3.62722C2.08564 4.62643 2 6.22067 2 8.5C2 10.7793 2.08564 12.3736 2.16682 13.3728C2.23108 14.1637 2.83629 14.7689 3.62722 14.8332C4.62643 14.9144 6.22067 15 8.5 15C10.7793 15 12.3736 14.9144 13.3728 14.8332C14.1637 14.7689 14.7689 14.1637 14.8332 13.3728C14.9144 12.3736 15 10.7793 15 8.5C15 6.22067 14.9144 4.62643 14.8332 3.62722Z" stroke="white" stroke-linecap="round" stroke-linejoin="round"/>
<path fill-rule="evenodd" clip-rule="evenodd" d="M8.03955 5.17432C8.52822 4.80339 9.2574 5.0554 9.38012 5.63768L9.6184 6.76813L11.2517 6.58579C11.9187 6.51133 12.2716 7.31231 11.7471 7.71037L8.96047 9.82566C8.47176 10.1966 7.74261 9.94458 7.61989 9.36234L7.38162 8.23189L5.74825 8.4142C5.0813 8.48865 4.72845 7.68771 5.25283 7.28965L8.03955 5.17432Z" fill="white"/>
<circle cx="14.5" cy="13.5" r="2.5" fill="#0F0F20" stroke="white" stroke-linecap="round"/>
<path d="M18 17L16.5 15.5" stroke="white" stroke-linecap="round"/>
</svg>
