<svg width="20" height="20" viewBox="0 0 20 20" fill="none" xmlns="http://www.w3.org/2000/svg">
<path d="M7.12516 17.4167H11.8752C15.8335 17.4167 17.4168 15.8334 17.4168 11.875V7.12504C17.4168 3.16671 15.8335 1.58337 11.8752 1.58337H7.12516C3.16683 1.58337 1.5835 3.16671 1.5835 7.12504V11.875C1.5835 15.8334 3.16683 17.4167 7.12516 17.4167Z" stroke="white" stroke-linecap="round" stroke-linejoin="round"/>
<path d="M12.3262 14.6458V11.5583" stroke="white" stroke-miterlimit="10" stroke-linecap="round" stroke-linejoin="round"/>
<path d="M12.3262 5.89788V4.35413" stroke="white" stroke-miterlimit="10" stroke-linecap="round" stroke-linejoin="round"/>
<path d="M12.3264 10.0146C13.4632 10.0146 14.3847 9.09307 14.3847 7.95628C14.3847 6.8195 13.4632 5.89795 12.3264 5.89795C11.1896 5.89795 10.2681 6.8195 10.2681 7.95628C10.2681 9.09307 11.1896 10.0146 12.3264 10.0146Z" stroke="white" stroke-miterlimit="10" stroke-linecap="round" stroke-linejoin="round"/>
<path d="M6.67383 14.6458V13.1021" stroke="white" stroke-miterlimit="10" stroke-linecap="round" stroke-linejoin="round"/>
<path d="M6.67383 7.44163V4.35413" stroke="white" stroke-miterlimit="10" stroke-linecap="round" stroke-linejoin="round"/>
<path d="M6.67357 13.1021C7.81035 13.1021 8.7319 12.1806 8.7319 11.0438C8.7319 9.90702 7.81035 8.98547 6.67357 8.98547C5.53678 8.98547 4.61523 9.90702 4.61523 11.0438C4.61523 12.1806 5.53678 13.1021 6.67357 13.1021Z" stroke="white" stroke-miterlimit="10" stroke-linecap="round" stroke-linejoin="round"/>
</svg>
