<svg width="20" height="20" viewBox="0 0 20 20" fill="none" xmlns="http://www.w3.org/2000/svg">
<path d="M14.8001 10C14.8001 10.8837 15.5164 11.6 16.4 11.6C17.2837 11.6 18 10.8837 18 10C18 9.11635 17.2837 8.4 16.4 8.4C15.5164 8.4 14.8001 9.11635 14.8001 10ZM14.8001 10H10.5002M14.8001 3.6C14.8001 4.48366 15.5164 5.2 16.4 5.2C17.2837 5.2 18 4.48366 18 3.6C18 2.71635 17.2837 2 16.4 2C15.5164 2 14.8001 2.71635 14.8001 3.6ZM14.8001 3.6H5.49991M14.8001 16.4C14.8001 17.2837 15.5164 18 16.4 18C17.2837 18 18 17.2837 18 16.4C18 15.5163 17.2837 14.8 16.4 14.8C15.5164 14.8 14.8001 15.5163 14.8001 16.4ZM14.8001 16.4H10.2002C9.75837 16.4 9.40021 16.0418 9.40021 15.6V4.4M5.19992 3.6C5.19992 4.48366 4.48359 5.2 3.59996 5.2C2.71633 5.2 2 4.48366 2 3.6C2 2.71634 2.71633 2 3.59996 2C4.48359 2 5.19992 2.71634 5.19992 3.6Z" stroke="white" stroke-linecap="round"/>
</svg>
