<svg width="20" height="20" viewBox="0 0 20 20" fill="none" xmlns="http://www.w3.org/2000/svg">
<path d="M16.229 7.91663C17.4165 7.91663 17.4165 8.33329 17.4165 9.16663V10.8333C17.4165 11.6666 17.4165 12.0833 16.229 12.0833" stroke="white" stroke-linecap="round" stroke-linejoin="round"/>
<path d="M7.91646 6.66663L6.42021 8.74996C6.11146 9.30829 6.49146 9.99996 7.10104 9.99996H8.92187C9.53146 9.99996 9.91146 10.6916 9.61062 11.25L7.91646 13.3333" stroke="white" stroke-linecap="round" stroke-linejoin="round"/>
<path d="M5.54183 15.8333C2.37516 15.8333 1.5835 15 1.5835 11.6666V8.33329C1.5835 4.99996 2.37516 4.16663 5.54183 4.16663" stroke="white" stroke-linecap="round" stroke-linejoin="round"/>
<path d="M10.2915 4.16663C13.4582 4.16663 14.2498 4.99996 14.2498 8.33329V11.6666C14.2498 15 13.4582 15.8333 10.2915 15.8333" stroke="white" stroke-linecap="round" stroke-linejoin="round"/>
</svg>
