<svg width="20" height="20" viewBox="0 0 20 20" fill="none" xmlns="http://www.w3.org/2000/svg">
<path d="M3.11017 4.33655C3.14724 3.72625 3.54435 3.25357 4.15063 3.17445C4.61867 3.11336 5.29508 3.0625 6.25 3.0625C7.2049 3.0625 7.88133 3.11336 8.34936 3.17445C8.95566 3.25357 9.35275 3.72625 9.38983 4.33655C9.41636 4.77305 9.4375 5.3906 9.4375 6.25C9.4375 7.10942 9.41636 7.72695 9.38983 8.16346C9.35275 8.77376 8.95566 9.24643 8.34936 9.32555C7.88133 9.38664 7.2049 9.4375 6.25 9.4375C5.29508 9.4375 4.61867 9.38664 4.15063 9.32555C3.54435 9.24643 3.14724 8.77376 3.11017 8.16346C3.08365 7.72695 3.0625 7.10942 3.0625 6.25C3.0625 5.3906 3.08365 4.77305 3.11017 4.33655Z" stroke="white" stroke-linejoin="round"/>
<path d="M3.11017 16.6635C3.14724 17.2738 3.54435 17.7464 4.15063 17.8255C4.61867 17.8866 5.29508 17.9375 6.25 17.9375C7.2049 17.9375 7.88133 17.8866 8.34936 17.8255C8.95566 17.7464 9.35275 17.2738 9.38983 16.6635C9.41636 16.2269 9.4375 15.6094 9.4375 14.75C9.4375 13.8906 9.41636 13.2731 9.38983 12.8365C9.35275 12.2262 8.95566 11.7536 8.34936 11.6745C7.88133 11.6134 7.2049 11.5625 6.25 11.5625C5.29508 11.5625 4.61867 11.6134 4.15063 11.6745C3.54435 11.7536 3.14724 12.2262 3.11017 12.8365C3.08365 13.2731 3.0625 13.8906 3.0625 14.75C3.0625 15.6094 3.08365 16.2269 3.11017 16.6635Z" stroke="white" stroke-linejoin="round"/>
<path d="M16.6635 3.11017C17.2738 3.14724 17.7464 3.54435 17.8255 4.15064C17.8866 4.61867 17.9375 5.29508 17.9375 6.25C17.9375 7.2049 17.8866 7.88133 17.8255 8.34936C17.7464 8.95566 17.2738 9.35275 16.6635 9.38983C16.2269 9.41636 15.6094 9.4375 14.75 9.4375C13.8906 9.4375 13.2731 9.41636 12.8365 9.38983C12.2262 9.35275 11.7536 8.95566 11.6745 8.34936C11.6134 7.88133 11.5625 7.2049 11.5625 6.25C11.5625 5.29508 11.6134 4.61867 11.6745 4.15063C11.7536 3.54435 12.2262 3.14724 12.8365 3.11017C13.2731 3.08365 13.8906 3.0625 14.75 3.0625C15.6094 3.0625 16.2269 3.08365 16.6635 3.11017Z" stroke="white" stroke-linejoin="round"/>
<path d="M14.3201 17.9174C13.9598 17.8813 13.7368 17.5751 13.723 17.2132C13.7112 16.9037 13.6992 16.4504 13.6925 15.8075C13.0496 15.8008 12.5963 15.7888 12.2868 15.777C11.9249 15.7632 11.6187 15.5402 11.5826 15.1799C11.5704 15.0586 11.5625 14.9158 11.5625 14.75C11.5625 14.5842 11.5704 14.4414 11.5826 14.3201C11.6187 13.9598 11.9249 13.7368 12.2868 13.723C12.5963 13.7112 13.0496 13.6992 13.6925 13.6925C13.6992 13.0496 13.7112 12.5963 13.723 12.2868C13.7368 11.9249 13.9598 11.6187 14.3201 11.5826C14.4414 11.5704 14.5842 11.5625 14.75 11.5625C14.9158 11.5625 15.0586 11.5704 15.1799 11.5826C15.5402 11.6187 15.7632 11.9249 15.777 12.2868C15.7888 12.5963 15.8008 13.0496 15.8075 13.6925C16.4504 13.6992 16.9037 13.7112 17.2132 13.723C17.5751 13.7368 17.8813 13.9598 17.9174 14.3201C17.9296 14.4414 17.9375 14.5842 17.9375 14.75C17.9375 14.9158 17.9296 15.0586 17.9174 15.1799C17.8813 15.5402 17.5751 15.7632 17.2132 15.777C16.9037 15.7888 16.4504 15.8008 15.8075 15.8075C15.8008 16.4504 15.7888 16.9037 15.777 17.2132C15.7632 17.5751 15.5402 17.8813 15.1799 17.9174C15.0586 17.9296 14.9158 17.9375 14.75 17.9375C14.5842 17.9375 14.4414 17.9296 14.3201 17.9174Z" stroke="white" stroke-linejoin="round"/>
</svg>
