<svg width="20" height="20" viewBox="0 0 20 20" fill="none" xmlns="http://www.w3.org/2000/svg">
<path d="M7 11.1447L9.53845 13.75L13 9.25" stroke="white" stroke-linecap="round" stroke-linejoin="round"/>
<path d="M5.12597 4.21094C4.69989 4.25209 4.33145 4.2954 4.01924 4.33702C3.19457 4.44694 2.56514 5.06748 2.44712 5.89105C2.29428 6.95751 2.125 8.65416 2.125 10.9377C2.125 13.2211 2.29428 14.9178 2.44712 15.9843C2.56514 16.8078 3.19457 17.4283 4.01924 17.5383C5.19314 17.6947 7.16196 17.8752 10 17.8752C12.838 17.8752 14.8069 17.6947 15.9808 17.5383C16.8054 17.4283 17.4349 16.8078 17.5529 15.9843C17.7057 14.9178 17.875 13.2211 17.875 10.9377C17.875 8.65416 17.7057 6.95751 17.5529 5.89105C17.4349 5.06748 16.8054 4.44694 15.9808 4.33702C15.6685 4.2954 15.3001 4.25209 14.874 4.21094" stroke="white" stroke-linecap="round" stroke-linejoin="round"/>
<path d="M11.875 4.02776C11.2983 4.01017 10.6736 4 10 4C9.32635 4 8.70171 4.01017 8.125 4.02776" stroke="white" stroke-linecap="round" stroke-linejoin="round"/>
<path d="M11.8799 4.47622C11.8961 5.25621 12.4081 5.86161 13.1882 5.87361C13.2478 5.87451 13.31 5.875 13.375 5.875C13.44 5.875 13.5022 5.87451 13.5618 5.87361C14.3419 5.86161 14.8538 5.25621 14.8701 4.47622C14.8732 4.328 14.875 4.16885 14.875 4C14.875 3.83115 14.8732 3.672 14.8701 3.52378C14.8538 2.74378 14.3419 2.1384 13.5618 2.1264C13.5022 2.12549 13.44 2.125 13.375 2.125C13.31 2.125 13.2478 2.12549 13.1882 2.1264C12.4081 2.1384 11.8961 2.74378 11.8799 3.52378C11.8768 3.672 11.875 3.83115 11.875 4C11.875 4.16885 11.8768 4.328 11.8799 4.47622Z" stroke="white" stroke-linecap="round" stroke-linejoin="round"/>
<path d="M5.12991 4.47622C5.14615 5.25621 5.65814 5.86161 6.43821 5.87361C6.4978 5.87451 6.56001 5.875 6.625 5.875C6.68999 5.875 6.7522 5.87451 6.81179 5.87361C7.59186 5.86161 8.10385 5.25621 8.12009 4.47622C8.12316 4.328 8.125 4.16885 8.125 4C8.125 3.83115 8.12316 3.672 8.12009 3.52378C8.10385 2.74378 7.59186 2.1384 6.81179 2.1264C6.7522 2.12549 6.68999 2.125 6.625 2.125C6.56001 2.125 6.4978 2.12549 6.43821 2.1264C5.65814 2.1384 5.14615 2.74378 5.12991 3.52378C5.12684 3.672 5.125 3.83115 5.125 4C5.125 4.16885 5.12684 4.328 5.12991 4.47622Z" stroke="white" stroke-linecap="round" stroke-linejoin="round"/>
</svg>
