<svg width="20" height="20" viewBox="0 0 20 20" fill="none" xmlns="http://www.w3.org/2000/svg">
<path d="M17.6729 4.09644C17.595 3.13821 16.8618 2.40497 15.9036 2.32711C14.693 2.22875 12.7615 2.125 10 2.125C7.2385 2.125 5.30703 2.22875 4.09644 2.32711C3.13821 2.40496 2.40497 3.1382 2.32711 4.09644C2.22875 5.30703 2.125 7.2385 2.125 10C2.125 12.7615 2.22875 14.693 2.32711 15.9036C2.40496 16.8618 3.1382 17.595 4.09644 17.6729C5.30702 17.7712 7.2385 17.875 10 17.875C12.7615 17.875 14.693 17.7712 15.9036 17.6729C16.8618 17.595 17.595 16.8618 17.6729 15.9036C17.7712 14.693 17.875 12.7615 17.875 10C17.875 7.2385 17.7712 5.30703 17.6729 4.09644Z" stroke="white" stroke-linecap="round" stroke-linejoin="round"/>
<path d="M10.5445 6.07536C10.5678 5.82074 10.6151 5.42406 10.7105 4.86096C10.779 4.45718 11.2481 4.27336 11.5728 4.52297C12.971 5.5978 13.8591 6.51501 14.7178 7.75266C14.8214 7.90199 14.875 8.08026 14.875 8.26199C14.875 8.59 14.6163 8.85977 14.2883 8.8663C12.9907 8.89221 11.4365 8.85332 10.0002 8.84747C8.40759 8.84095 6.99339 8.84346 6.185 8.84612C5.73316 8.84759 5.29726 8.63717 5.18949 8.19842C5.15191 8.04557 5.12754 7.8838 5.12521 7.72885C5.12244 7.54806 5.14704 7.3714 5.1881 7.2103C5.29479 6.79157 5.71959 6.58994 6.15147 6.57625L10.1585 6.44916C10.3609 6.44271 10.526 6.277 10.5445 6.07536Z" stroke="white" stroke-linecap="round" stroke-linejoin="round"/>
<path d="M9.4555 13.9248C9.43214 14.1794 9.38492 14.5761 9.28945 15.1392C9.22101 15.543 8.75189 15.7268 8.42717 15.4772C7.02902 14.4024 6.14087 13.4851 5.28216 12.2475C5.17859 12.0981 5.125 11.9199 5.125 11.7381C5.125 11.4102 5.38371 11.1404 5.71165 11.1338C7.00926 11.1079 8.56349 11.1468 9.99974 11.1527C11.5924 11.1592 13.0066 11.1567 13.815 11.154C14.2668 11.1525 14.7027 11.3629 14.8105 11.8017C14.8481 11.9546 14.8725 12.1163 14.8748 12.2713C14.8776 12.4521 14.8529 12.6288 14.8119 12.7898C14.7052 13.2086 14.2804 13.4102 13.8485 13.4239L9.84145 13.551C9.6391 13.5574 9.47399 13.7232 9.4555 13.9248Z" stroke="white" stroke-linecap="round" stroke-linejoin="round"/>
</svg>
