<svg width="20" height="20" viewBox="0 0 20 20" fill="none" xmlns="http://www.w3.org/2000/svg">
<path d="M14.8332 3.62722C14.7689 2.8363 14.1637 2.23108 13.3728 2.16682C12.3736 2.08564 10.7793 2 8.5 2C6.22067 2 4.62643 2.08564 3.62722 2.16682C2.8363 2.23108 2.23109 2.83629 2.16682 3.62722C2.08564 4.62643 2 6.22067 2 8.5C2 10.7793 2.08564 12.3736 2.16682 13.3728C2.23108 14.1637 2.83629 14.7689 3.62722 14.8332C4.62643 14.9144 6.22067 15 8.5 15C10.7793 15 12.3736 14.9144 13.3728 14.8332C14.1637 14.7689 14.7689 14.1637 14.8332 13.3728C14.9144 12.3736 15 10.7793 15 8.5C15 6.22067 14.9144 4.62643 14.8332 3.62722Z" stroke="white" stroke-linecap="round" stroke-linejoin="round"/>
<path d="M11 8.08824C11 9.92717 9.2611 11.2334 8.43108 11.7521C8.16474 11.9186 7.83526 11.9186 7.56892 11.7521C6.7389 11.2334 5 9.92717 5 8.08824C5 6.23529 6.4536 5 8 5C9.6 5 11 6.23529 11 8.08824Z" stroke="white"/>
<circle cx="8" cy="8" r="1" fill="white"/>
<circle cx="14.5" cy="13.5" r="2.5" fill="#0F0F20" stroke="white" stroke-linecap="round"/>
<path d="M18 17L16.5 15.5" stroke="white" stroke-linecap="round"/>
</svg>
