<svg width="20" height="20" viewBox="0 0 20 20" fill="none" xmlns="http://www.w3.org/2000/svg">
<path d="M7.12516 17.4167H11.8752C15.8335 17.4167 17.4168 15.8334 17.4168 11.875V7.12504C17.4168 3.16671 15.8335 1.58337 11.8752 1.58337H7.12516C3.16683 1.58337 1.5835 3.16671 1.5835 7.12504V11.875C1.5835 15.8334 3.16683 17.4167 7.12516 17.4167Z" stroke="white" stroke-linecap="round" stroke-linejoin="round"/>
<path d="M12.2708 14.6458C13.1417 14.6458 13.8542 13.9333 13.8542 13.0625V5.93746C13.8542 5.06663 13.1417 4.35413 12.2708 4.35413C11.4 4.35413 10.6875 5.06663 10.6875 5.93746V13.0625C10.6875 13.9333 11.3921 14.6458 12.2708 14.6458Z" stroke="white" stroke-linecap="round" stroke-linejoin="round"/>
<path d="M6.72933 14.6459C7.60016 14.6459 8.31266 13.9334 8.31266 13.0625V10.2917C8.31266 9.42087 7.60016 8.70837 6.72933 8.70837C5.8585 8.70837 5.146 9.42087 5.146 10.2917V13.0625C5.146 13.9334 5.85058 14.6459 6.72933 14.6459Z" stroke="white" stroke-linecap="round" stroke-linejoin="round"/>
</svg>
