<svg width="20" height="20" viewBox="0 0 20 20" fill="none" xmlns="http://www.w3.org/2000/svg">
<path d="M8.31311 14.0204C8.50838 14.2156 8.82496 14.2156 9.02022 14.0204C9.21548 13.8251 9.21548 13.5085 9.02022 13.3133L8.31311 14.0204ZM7 12.0002L6.64645 11.6466C6.45118 11.8419 6.45118 12.1585 6.64645 12.3537L7 12.0002ZM9.02022 10.687C9.21548 10.4918 9.21548 10.1752 9.02022 9.97994C8.82496 9.78468 8.50838 9.78468 8.31311 9.97994L9.02022 10.687ZM11.6869 9.97994C11.4916 9.78468 11.175 9.78468 10.9798 9.97994C10.7845 10.1752 10.7845 10.4918 10.9798 10.687L11.6869 9.97994ZM13 12.0002L13.3536 12.3537C13.5488 12.1585 13.5488 11.8419 13.3536 11.6466L13 12.0002ZM10.9798 13.3133C10.7845 13.5085 10.7845 13.8251 10.9798 14.0204C11.175 14.2156 11.4916 14.2156 11.6869 14.0204L10.9798 13.3133ZM3.14286 4.5H7.71429V3.5H3.14286V4.5ZM8.35714 5.16667V7.16667H9.35714V5.16667H8.35714ZM8.35714 7.16667V7.33333H9.35714V7.16667H8.35714ZM7.71429 4.5C8.05966 4.5 8.35714 4.78871 8.35714 5.16667H9.35714C9.35714 4.25596 8.63128 3.5 7.71429 3.5V4.5ZM3.14286 3.5C2.22586 3.5 1.5 4.25596 1.5 5.16667H2.5C2.5 4.78871 2.79749 4.5 3.14286 4.5V3.5ZM2 7.66667H8.85714V6.66667H2V7.66667ZM8.85714 7.66667H16.8571V6.66667H8.85714V7.66667ZM17.5 8.33333V15.8333H18.5V8.33333H17.5ZM16.8571 16.5H3.14286V17.5H16.8571V16.5ZM2.5 15.8333V7.16667H1.5V15.8333H2.5ZM3.14286 16.5C2.79749 16.5 2.5 16.2113 2.5 15.8333H1.5C1.5 16.744 2.22586 17.5 3.14286 17.5V16.5ZM17.5 15.8333C17.5 16.2113 17.2025 16.5 16.8571 16.5V17.5C17.7741 17.5 18.5 16.744 18.5 15.8333H17.5ZM16.8571 7.66667C17.2025 7.66667 17.5 7.95537 17.5 8.33333H18.5C18.5 7.42263 17.7741 6.66667 16.8571 6.66667V7.66667ZM9.02022 13.3133L7.35355 11.6466L6.64645 12.3537L8.31311 14.0204L9.02022 13.3133ZM7.35355 12.3537L9.02022 10.687L8.31311 9.97994L6.64645 11.6466L7.35355 12.3537ZM10.9798 10.687L12.6464 12.3537L13.3536 11.6466L11.6869 9.97994L10.9798 10.687ZM12.6464 11.6466L10.9798 13.3133L11.6869 14.0204L13.3536 12.3537L12.6464 11.6466ZM2.5 7.16667V5.16667H1.5V7.16667H2.5Z" fill="white"/>
</svg>
