<svg width="20" height="20" viewBox="0 0 20 20" fill="none" xmlns="http://www.w3.org/2000/svg">
<path d="M14.8332 3.62722C14.7689 2.8363 14.1637 2.23108 13.3728 2.16682C12.3736 2.08564 10.7793 2 8.5 2C6.22067 2 4.62643 2.08564 3.62722 2.16682C2.8363 2.23108 2.23109 2.83629 2.16682 3.62722C2.08564 4.62643 2 6.22067 2 8.5C2 10.7793 2.08564 12.3736 2.16682 13.3728C2.23108 14.1637 2.83629 14.7689 3.62722 14.8332C4.62643 14.9144 6.22067 15 8.5 15C10.7793 15 12.3736 14.9144 13.3728 14.8332C14.1637 14.7689 14.7689 14.1637 14.8332 13.3728C14.9144 12.3736 15 10.7793 15 8.5C15 6.22067 14.9144 4.62643 14.8332 3.62722Z" stroke="white" stroke-linecap="round" stroke-linejoin="round"/>
<path d="M5.24015 10.7285H10.7812C10.9932 10.7593 11.1999 10.6276 11.3133 10.3894C11.4266 10.1513 11.4266 9.8487 11.3133 9.61057C11.1999 9.37243 10.9932 9.24071 10.7812 9.27152H5.23345C4.95161 9.31247 4.73828 9.62632 4.73828 10C4.73828 10.3737 4.95161 10.6875 5.23345 10.7285H5.24015Z" fill="white"/>
<path d="M5.39064 6.49895H8.13375C8.50005 6.45799 8.77732 6.14415 8.77732 5.77047C8.77732 5.39679 8.50005 5.08295 8.13375 5.04199H5.39064C5.02433 5.08295 4.74707 5.39679 4.74707 5.77047C4.74707 6.14415 5.02433 6.45799 5.39064 6.49895Z" fill="white"/>
<circle cx="14.5" cy="13.5" r="2.5" fill="#0F0F20" stroke="white" stroke-linecap="round"/>
<path d="M18 17L16.5 15.5" stroke="white" stroke-linecap="round"/>
</svg>
